<mxfile host="app.diagrams.net" modified="2023-08-18T09:40:57.373Z" agent="Mozilla/5.0 (X11; Linux x86_64) AppleWebKit/537.36 (KHTML, like Gecko) Chrome/116.0.0.0 Safari/537.36" etag="krdFbb0ZLeadO3RvgbNK" version="21.6.8" type="github">
  <diagram name="Page-1" id="Wp-GC0lVlDzV43v7d72w">
    <mxGraphModel dx="880" dy="459" grid="1" gridSize="10" guides="1" tooltips="1" connect="1" arrows="1" fold="1" page="1" pageScale="1" pageWidth="850" pageHeight="1100" math="0" shadow="0">
      <root>
        <mxCell id="0" />
        <mxCell id="1" parent="0" />
        <mxCell id="W0KzHSzw3Zj9FE3dSMdp-25" style="edgeStyle=orthogonalEdgeStyle;rounded=0;orthogonalLoop=1;jettySize=auto;html=1;" edge="1" parent="1" source="W0KzHSzw3Zj9FE3dSMdp-1" target="W0KzHSzw3Zj9FE3dSMdp-2">
          <mxGeometry relative="1" as="geometry" />
        </mxCell>
        <mxCell id="W0KzHSzw3Zj9FE3dSMdp-1" value="START" style="strokeWidth=2;html=1;shape=mxgraph.flowchart.start_1;whiteSpace=wrap;" vertex="1" parent="1">
          <mxGeometry x="350" y="40" width="100" height="60" as="geometry" />
        </mxCell>
        <mxCell id="W0KzHSzw3Zj9FE3dSMdp-6" style="edgeStyle=orthogonalEdgeStyle;rounded=0;orthogonalLoop=1;jettySize=auto;html=1;entryX=0.5;entryY=0;entryDx=0;entryDy=0;entryPerimeter=0;" edge="1" parent="1" source="W0KzHSzw3Zj9FE3dSMdp-2" target="W0KzHSzw3Zj9FE3dSMdp-3">
          <mxGeometry relative="1" as="geometry" />
        </mxCell>
        <mxCell id="W0KzHSzw3Zj9FE3dSMdp-2" value="Enter student name and marks" style="shape=parallelogram;html=1;strokeWidth=2;perimeter=parallelogramPerimeter;whiteSpace=wrap;rounded=1;arcSize=12;size=0.23;" vertex="1" parent="1">
          <mxGeometry x="285" y="140" width="230" height="50" as="geometry" />
        </mxCell>
        <mxCell id="W0KzHSzw3Zj9FE3dSMdp-7" style="edgeStyle=orthogonalEdgeStyle;rounded=0;orthogonalLoop=1;jettySize=auto;html=1;entryX=0.5;entryY=0;entryDx=0;entryDy=0;" edge="1" parent="1" source="W0KzHSzw3Zj9FE3dSMdp-3" target="W0KzHSzw3Zj9FE3dSMdp-4">
          <mxGeometry relative="1" as="geometry" />
        </mxCell>
        <mxCell id="W0KzHSzw3Zj9FE3dSMdp-11" style="edgeStyle=orthogonalEdgeStyle;rounded=0;orthogonalLoop=1;jettySize=auto;html=1;entryX=0;entryY=0.5;entryDx=0;entryDy=0;" edge="1" parent="1" source="W0KzHSzw3Zj9FE3dSMdp-3" target="W0KzHSzw3Zj9FE3dSMdp-10">
          <mxGeometry relative="1" as="geometry" />
        </mxCell>
        <mxCell id="W0KzHSzw3Zj9FE3dSMdp-3" value="Is marks &amp;gt; 450?" style="strokeWidth=2;html=1;shape=mxgraph.flowchart.decision;whiteSpace=wrap;" vertex="1" parent="1">
          <mxGeometry x="350" y="240" width="100" height="100" as="geometry" />
        </mxCell>
        <mxCell id="W0KzHSzw3Zj9FE3dSMdp-8" style="edgeStyle=orthogonalEdgeStyle;rounded=0;orthogonalLoop=1;jettySize=auto;html=1;entryX=0.75;entryY=0;entryDx=0;entryDy=0;" edge="1" parent="1" source="W0KzHSzw3Zj9FE3dSMdp-4" target="W0KzHSzw3Zj9FE3dSMdp-5">
          <mxGeometry relative="1" as="geometry" />
        </mxCell>
        <mxCell id="W0KzHSzw3Zj9FE3dSMdp-4" value="Marks" style="shape=parallelogram;html=1;strokeWidth=2;perimeter=parallelogramPerimeter;whiteSpace=wrap;rounded=1;arcSize=12;size=0.23;" vertex="1" parent="1">
          <mxGeometry x="340" y="380" width="100" height="60" as="geometry" />
        </mxCell>
        <mxCell id="W0KzHSzw3Zj9FE3dSMdp-21" style="edgeStyle=orthogonalEdgeStyle;rounded=0;orthogonalLoop=1;jettySize=auto;html=1;entryX=0.145;entryY=0.145;entryDx=0;entryDy=0;entryPerimeter=0;" edge="1" parent="1" source="W0KzHSzw3Zj9FE3dSMdp-5" target="W0KzHSzw3Zj9FE3dSMdp-16">
          <mxGeometry relative="1" as="geometry" />
        </mxCell>
        <mxCell id="W0KzHSzw3Zj9FE3dSMdp-5" value="You passed" style="shape=parallelogram;html=1;strokeWidth=2;perimeter=parallelogramPerimeter;whiteSpace=wrap;rounded=1;arcSize=12;size=0.23;" vertex="1" parent="1">
          <mxGeometry x="320" y="480" width="100" height="60" as="geometry" />
        </mxCell>
        <mxCell id="W0KzHSzw3Zj9FE3dSMdp-9" value="Yes" style="text;html=1;align=center;verticalAlign=middle;resizable=0;points=[];autosize=1;strokeColor=none;fillColor=none;" vertex="1" parent="1">
          <mxGeometry x="390" y="338" width="40" height="30" as="geometry" />
        </mxCell>
        <mxCell id="W0KzHSzw3Zj9FE3dSMdp-13" style="edgeStyle=orthogonalEdgeStyle;rounded=0;orthogonalLoop=1;jettySize=auto;html=1;entryX=0.5;entryY=0;entryDx=0;entryDy=0;" edge="1" parent="1" source="W0KzHSzw3Zj9FE3dSMdp-10" target="W0KzHSzw3Zj9FE3dSMdp-12">
          <mxGeometry relative="1" as="geometry" />
        </mxCell>
        <mxCell id="W0KzHSzw3Zj9FE3dSMdp-10" value="Marks" style="shape=parallelogram;html=1;strokeWidth=2;perimeter=parallelogramPerimeter;whiteSpace=wrap;rounded=1;arcSize=12;size=0.23;" vertex="1" parent="1">
          <mxGeometry x="570" y="260" width="100" height="60" as="geometry" />
        </mxCell>
        <mxCell id="W0KzHSzw3Zj9FE3dSMdp-20" style="edgeStyle=orthogonalEdgeStyle;rounded=0;orthogonalLoop=1;jettySize=auto;html=1;entryX=0.855;entryY=0.145;entryDx=0;entryDy=0;entryPerimeter=0;" edge="1" parent="1" source="W0KzHSzw3Zj9FE3dSMdp-12" target="W0KzHSzw3Zj9FE3dSMdp-16">
          <mxGeometry relative="1" as="geometry" />
        </mxCell>
        <mxCell id="W0KzHSzw3Zj9FE3dSMdp-12" value="Average" style="shape=parallelogram;html=1;strokeWidth=2;perimeter=parallelogramPerimeter;whiteSpace=wrap;rounded=1;arcSize=12;size=0.23;" vertex="1" parent="1">
          <mxGeometry x="560" y="380" width="100" height="60" as="geometry" />
        </mxCell>
        <mxCell id="W0KzHSzw3Zj9FE3dSMdp-24" style="edgeStyle=orthogonalEdgeStyle;rounded=0;orthogonalLoop=1;jettySize=auto;html=1;" edge="1" parent="1" source="W0KzHSzw3Zj9FE3dSMdp-16" target="W0KzHSzw3Zj9FE3dSMdp-23">
          <mxGeometry relative="1" as="geometry" />
        </mxCell>
        <mxCell id="W0KzHSzw3Zj9FE3dSMdp-16" value="" style="verticalLabelPosition=bottom;verticalAlign=top;html=1;shape=mxgraph.flowchart.on-page_reference;" vertex="1" parent="1">
          <mxGeometry x="495" y="580" width="20" height="20" as="geometry" />
        </mxCell>
        <mxCell id="W0KzHSzw3Zj9FE3dSMdp-23" value="STOP" style="strokeWidth=2;html=1;shape=mxgraph.flowchart.start_1;whiteSpace=wrap;" vertex="1" parent="1">
          <mxGeometry x="460" y="690" width="100" height="60" as="geometry" />
        </mxCell>
      </root>
    </mxGraphModel>
  </diagram>
</mxfile>
